HIERARCHY
ROOT Hips
{
	OFFSET 0.000000 0.000000 0.000000
	CHANNELS 6 Xposition Yposition Zposition Zrotation Yrotation Xrotation 
	JOINT LHipJoint
	{
		OFFSET 0.000000 0.000000 0.000000
		CHANNELS 3 Zrotation Yrotation Xrotation
		JOINT LeftUpLeg
		{
			OFFSET 1.363060 -1.794630 0.839290
			CHANNELS 3 Zrotation Yrotation Xrotation
			JOINT LeftLeg
			{
				OFFSET 2.448110 -6.726130 0.000000
				CHANNELS 3 Zrotation Yrotation Xrotation
				JOINT LeftFoot
				{
					OFFSET 2.562200 -7.039590 0.000000
					CHANNELS 3 Zrotation Yrotation Xrotation
					JOINT LeftToeBase
					{
						OFFSET 0.157640 -0.433110 2.322550
						CHANNELS 3 Zrotation Yrotation Xrotation
						End Site
						{
							OFFSET 0.000000 0.000000 0.000000
						}
					}
				}
			}
		}
	}
	JOINT RHipJoint
	{
		OFFSET 0.000000 0.000000 0.000000
		CHANNELS 3 Zrotation Yrotation Xrotation
		JOINT RightUpLeg
		{
			OFFSET -1.305520 -1.794630 0.839290
			CHANNELS 3 Zrotation Yrotation Xrotation
			JOINT RightLeg
			{
				OFFSET -2.542530 -6.985550 0.000000
				CHANNELS 3 Zrotation Yrotation Xrotation
				JOINT RightFoot
				{
					OFFSET -2.568260 -7.056230 0.000000
					CHANNELS 3 Zrotation Yrotation Xrotation
					JOINT RightToeBase
					{
						OFFSET -0.164730 -0.452590 2.363150
						CHANNELS 3 Zrotation Yrotation Xrotation
						End Site
						{
							OFFSET 0.000000 0.000000 0.000000
						}
					}
				}
			}
		}
	}
}
MOTION
Frames: 25
Frame Time: 0.008333
2.564034 17.282027 0.592193 168.897519 88.968704 165.764037 -11.371553 5.240292 -1.018862 6.621896 14.800663 10.728361 0.067005 2.455065 31.578135 1.944081 -2.961957 36.576831 -2.952000 0.000000 -67.013200 9.554007 -0.153864 1.019415 8.782384 -2.525173 -12.993933 1.762422 0.439540 10.502472 -2.661879 -11.803927 -9.316296 -0.257000 -0.000000 -30.632901
2.778570 17.235035 0.629858 177.209900 88.943241 173.779675 -11.662861 5.190770 -1.099776 7.678825 15.501326 9.723745 0.139703 2.520621 34.204271 2.104508 -1.255094 36.541329 -1.898200 -0.000000 -62.506000 9.361982 -0.238030 0.743111 9.270384 -3.347082 -12.995069 1.816701 0.240174 12.634287 -2.494642 -10.962031 -9.528610 -0.154400 0.000000 -30.104899
2.990325 17.186377 0.664770 -175.514933 88.838798 -179.238462 -11.950714 5.095327 -1.182837 8.618465 16.114589 8.658160 0.232404 2.596316 36.869768 2.261903 1.063112 35.920904 -0.443700 0.000000 -58.053300 9.165253 -0.352011 0.453682 9.726705 -4.342870 -13.090460 1.862128 0.026013 14.825761 -2.326717 -10.109979 -9.737181 -0.061201 0.000000 -29.402700
3.199140 17.137223 0.697340 -169.454586 88.680748 -173.465291 -12.208982 4.964175 -1.270966 9.415381 16.624331 7.546808 0.339286 2.688033 39.532547 2.414324 3.830501 34.685089 1.251900 -0.000000 -53.875400 8.987517 -0.483611 0.162310 10.137443 -5.435889 -13.224682 1.895531 -0.192757 17.001907 -2.168738 -9.295154 -9.965331 0.025600 -0.000000 -28.469600
3.405087 17.088911 0.728190 -164.573702 88.502529 -168.853673 -12.426725 4.812286 -1.364685 10.049376 17.032315 6.384400 0.453085 2.799849 42.157160 2.559218 6.836327 32.829499 2.984700 -0.000001 -50.024700 8.838194 -0.618648 -0.115244 10.494173 -6.520004 -13.348235 1.914671 -0.403900 19.091365 -2.033737 -8.576128 -10.240419 0.109400 0.000000 -27.278901
3.608186 17.042753 0.757826 -160.689246 88.328914 -165.215506 -12.604937 4.651139 -1.464085 10.510598 17.342706 5.175217 0.568235 2.931643 44.701674 2.694540 9.868680 30.393623 4.553600 0.000000 -46.519900 8.715010 -0.747380 -0.369197 10.796656 -7.509096 -13.404224 1.920930 -0.597112 21.023079 -1.930743 -7.993821 -10.587299 0.194300 0.000000 -25.823700
3.808636 16.999979 0.786692 -157.607680 88.174978 -162.353469 -12.748546 4.487731 -1.567922 10.796184 17.560796 3.924024 0.679834 3.079085 47.124707 2.818810 12.747936 27.451809 5.796800 -0.000000 -43.330600 8.611647 -0.864543 -0.592637 11.050669 -8.335804 -13.344973 1.917754 -0.765560 22.737946 -1.865460 -7.574165 -11.025800 0.284800 0.000000 -24.130100
4.006625 16.961660 0.815158 -155.166127 88.047536 -160.103249 -12.862615 4.325711 -1.673646 10.908745 17.690684 2.638656 0.782559 3.234917 49.385975 2.931508 15.347234 24.106927 6.613800 -0.000001 -40.426199 8.521799 -0.967811 -0.782204 11.265049 -8.957136 -13.134750 1.909420 -0.905736 24.192454 -1.840063 -7.326865 -11.566544 0.385600 -0.000000 -22.256699
4.202416 16.928670 0.843464 -153.252978 87.948224 -158.355435 -12.950566 4.167497 -1.778378 10.856089 17.737946 1.330111 0.870309 3.391427 51.451226 3.031498 17.586682 20.461559 6.961500 0.000000 -37.634600 8.441242 -1.056303 -0.938803 11.448514 -9.360026 -12.749713 1.900188 -1.016624 25.360044 -1.852920 -7.242566 -12.210426 0.501000 -0.000001 -20.255000
4.396320 16.901570 0.871870 -151.805580 87.875986 -157.048705 -13.014135 4.014250 -1.878005 10.644722 17.704731 0.010135 0.936573 3.540250 53.287589 3.119521 19.441064 16.645912 6.861800 0.000000 -34.994100 8.368004 -1.129518 -1.065129 11.607698 -9.548346 -12.180743 1.892624 -1.098863 26.227339 -1.900790 -7.306657 -12.939628 0.633500 -0.000000 -18.244000
4.588676 16.880719 0.900464 -150.800802 87.828210 -156.164088 -13.053472 3.867385 -1.968977 10.285383 17.596329 -1.307839 0.975649 3.674837 54.871517 3.195407 20.913228 12.772921 6.372699 0.000000 -32.418700 8.302341 -1.187295 -1.166673 11.746078 -9.549478 -11.428551 1.888125 -1.154105 26.794100 -1.978035 -7.493778 -13.725653 0.782900 0.000000 -16.326000
4.779836 16.866154 0.929296 -150.234862 87.801699 -155.701796 -13.068132 3.727973 -2.047920 9.789122 17.419416 -2.611733 0.983676 3.789992 56.186660 3.259796 22.032563 8.955693 5.583300 -0.000001 -29.906400 8.245842 -1.229854 -1.249664 11.863554 -9.403014 -10.504046 1.886580 -1.184570 27.069232 -2.077728 -7.776165 -14.527246 0.945800 0.000000 -14.625000
4.970213 16.857729 0.958348 -150.119784 87.794118 -155.678240 -13.057209 3.597305 -2.112377 9.169283 17.185875 -3.892329 0.958973 3.882606 57.226956 3.313066 22.839570 5.279980 4.588700 -0.000000 -27.336300 8.201187 -1.257877 -1.320339 11.956837 -9.157832 -9.425376 1.886924 -1.192543 27.068998 -2.191860 -8.123595 -15.299569 1.115401 0.000000 -13.231300
5.160204 16.855091 0.987484 -150.463672 87.803528 -156.103745 -13.020216 3.475867 -2.160196 8.438411 16.908917 -5.144249 0.902791 3.950533 57.992152 3.357335 23.389812 1.833527 3.490700 0.000000 -24.766300 8.171313 -1.272833 -1.384067 12.020481 -8.864069 -8.217940 1.887363 -1.180499 26.815505 -2.311981 -8.507663 -15.994986 1.281900 0.000000 -12.238300
5.350211 16.857719 1.016573 -151.266290 87.829533 -156.979105 -12.957125 3.363753 -2.190134 7.610179 16.606458 -6.367072 0.818716 3.992962 58.490360 3.395025 23.740876 -1.320565 2.375900 0.000001 -22.220500 8.159109 -1.277099 -1.444468 12.047371 -8.569118 -6.910637 1.885997 -1.150805 26.334891 -2.429626 -8.901047 -16.572113 1.433600 0.000000 -11.691499
5.540673 16.864980 1.045404 -152.518753 87.873825 -158.293495 -12.868265 3.260454 -2.202193 6.697697 16.300107 -7.566186 0.711635 4.010073 58.736770 3.428793 23.948116 -4.148899 1.307400 0.000000 -19.678100 8.167309 -1.273639 -1.503067 12.029794 -8.312602 -5.537111 1.881109 -1.105817 25.657836 -2.537025 -9.278953 -17.000060 1.559100 0.000000 -11.598100
5.731960 16.876146 1.073752 -154.200617 87.939114 -160.023121 -12.754539 3.164996 -2.196922 5.712539 16.012279 -8.750390 0.587341 4.002498 58.750066 3.461677 24.063678 -6.632129 0.328500 0.000000 -17.191099 8.197919 -1.266079 -1.558886 11.960757 -8.122368 -4.130555 1.871505 -1.047738 24.815943 -2.627759 -9.620318 -17.261089 1.649001 -0.000000 -11.920400
5.924420 16.890535 1.101466 -156.297249 88.030714 -162.147335 -12.616707 3.076065 -2.176077 4.665450 15.765830 -9.932323 0.450814 3.971405 58.551439 3.496095 24.128260 -8.781510 -0.543199 0.000000 -14.730500 8.252656 -1.257963 -1.608885 11.834974 -8.012696 -2.724649 1.856411 -0.978746 23.842755 -2.697267 -9.908986 -17.351104 1.697400 0.000000 -12.596400
6.118309 16.907415 1.128357 -158.811681 88.154947 -164.662753 -12.455255 2.992429 -2.141678 3.565359 15.580516 -11.124396 0.306900 3.918050 58.159636 3.533998 24.174205 -10.604139 -1.298000 -0.000001 -12.421900 8.332917 -1.252598 -1.648163 11.650093 -7.983243 -1.349239 1.835448 -0.900953 22.770617 -2.743148 -10.135115 -17.277328 1.702200 -0.000000 -13.555499
6.313824 16.926144 1.154316 -161.784632 88.318443 -167.602940 -12.269646 2.912972 -2.096575 2.419153 15.472509 -12.338627 0.158810 3.843910 57.591694 3.575811 24.217216 -12.126606 -1.939800 -0.000000 -10.309800 8.440374 -1.252840 -1.671126 11.406982 -8.023031 -0.031620 1.808768 -0.816623 21.632473 -2.764834 -10.293215 -17.058023 1.665900 -0.000000 -14.723900
6.511075 16.946125 1.179206 -165.320811 88.525968 -171.066051 -12.057759 2.836491 -2.043989 1.233775 15.452201 -13.584445 0.008224 3.750372 56.861668 3.620693 24.258205 -13.387683 -2.480000 -0.000000 -8.358100 8.577452 -1.261215 -1.672190 11.110568 -8.113407 1.205778 1.776992 -0.728177 20.459753 -2.763476 -10.382523 -16.719230 1.594200 0.000000 -16.029800
6.710043 16.966913 1.202977 -169.622440 88.776853 -175.249604 -11.815620 2.760887 -1.986817 0.014746 15.520687 -14.864931 -0.142510 3.637770 55.976264 3.666659 24.290064 -14.400803 -2.919700 0.000000 -6.712700 8.747925 -1.280815 -1.646381 10.769398 -8.231236 2.347404 1.741222 -0.638418 19.278252 -2.741625 -10.407858 -16.288327 1.494801 -0.000000 -17.427700
6.910664 16.988140 1.225492 -175.043387 89.060455 179.494781 -11.537480 2.680611 -1.928225 -1.230278 15.670072 -16.176873 -0.291171 3.504376 54.939558 3.710769 24.294907 -15.190383 -3.263601 0.000000 -5.385900 8.957020 -1.317430 -1.590211 10.396139 -8.356391 3.382216 1.703678 -0.551394 18.110324 -2.702594 -10.376885 -15.793435 1.376101 0.000000 -18.882000
7.112860 17.009642 1.246577 177.874986 89.346275 172.626887 -11.220746 2.582029 -1.869824 -2.492147 15.877464 -17.510529 -0.432001 3.343846 53.751725 3.749655 24.253846 -15.757962 -3.506301 -0.000000 -4.488900 9.206745 -1.383977 -1.501176 10.009266 -8.474189 4.304033 1.668901 -0.473055 16.967550 -2.651043 -10.304001 -15.258398 1.245900 -0.000001 -20.355499
7.316288 17.030940 1.266121 168.068110 89.578598 163.073153 -10.871570 2.435869 -1.818147 -3.764393 16.119936 -18.836096 -0.556840 3.141671 52.416571 3.780093 24.139607 -16.154527 -3.664300 -0.000001 -3.773500 9.493902 -1.507165 -1.381677 9.612801 -8.591887 5.108404 1.645426 -0.416303 15.869866 -2.588968 -10.191388 -14.700503 1.108800 0.000000 -21.917900
